<?xml version="1.0" encoding="UTF-8"?>
<!DOCTYPE svg PUBLIC "-//W3C//DTD SVG 1.1//EN" "http://www.w3.org/Graphics/SVG/1.1/DTD/svg11.dtd">
<svg xmlns="http://www.w3.org/2000/svg" version="1.1" width="111px" height="116px" style="shape-rendering:geometricPrecision; text-rendering:geometricPrecision; image-rendering:optimizeQuality; fill-rule:evenodd; clip-rule:evenodd" xmlns:xlink="http://www.w3.org/1999/xlink">
<g><path style="opacity:1" fill="#fefefe" d="M 84.5,-0.5 C 93.1667,-0.5 101.833,-0.5 110.5,-0.5C 110.5,34.5 110.5,69.5 110.5,104.5C 104.258,99.7639 98.4242,94.4306 93,88.5C 92.6667,97.1667 92.3333,105.833 92,114.5C 70.3333,92.1667 48.6667,69.8333 27,47.5C 25.6021,70.1373 25.1021,92.804 25.5,115.5C 17.1667,115.5 8.83333,115.5 0.5,115.5C 0.5,114.833 0.166667,114.5 -0.5,114.5C -0.5,79.1667 -0.5,43.8333 -0.5,8.5C 5.78206,13.1135 11.4487,18.4468 16.5,24.5C 17.3316,16.5207 17.8316,8.52072 18,0.5C 40,22.5 62,44.5 84,66.5C 84.5,44.1692 84.6666,21.8358 84.5,-0.5 Z M 93.5,7.5 C 96.1667,7.5 98.8333,7.5 101.5,7.5C 101.667,32.8355 101.5,58.1689 101,83.5C 98.6667,81.1667 96.3333,78.8333 94,76.5C 93.5,53.5024 93.3334,30.5024 93.5,7.5 Z M 26.5,21.5 C 46.1602,40.327 65.3269,59.6603 84,79.5C 84.6667,84.1667 84.6667,88.8333 84,93.5C 64.6379,74.4717 45.6379,55.1384 27,35.5C 26.5008,30.8452 26.3342,26.1785 26.5,21.5 Z M 8.5,29.5 C 11.8325,32 14.6658,35 17,38.5C 17.5,61.1642 17.6666,83.8309 17.5,106.5C 14.5,106.5 11.5,106.5 8.5,106.5C 8.5,80.8333 8.5,55.1667 8.5,29.5 Z"/></g>
</svg>
